# xmcd
#
# Track frame offsets:
#	182
#	15812
#	33937
#	47057
#	62392
#	77697
#	93480
#	106645
#	120002
#
# Disc length: 1854
#
# Revision: 3
# Processed by: cddbd v1.5.1PL0 Copyright (c) Steve Scherf et al.
# Submitted via: DiscPlay 4.0.3
# Normalized: r1:DSETVAR1,TDELIM( - );r2:TSWAP
#
DISCID=50073c09
DTITLE=Various Artist - Let's Talk Country
DYEAR=1900
DGENRE=
TTITLE0=Kathy Mattea - Clown In Your Rodeo
TTITLE1=Terri Clark - Suddenly Single
TTITLE2=Hank Williams - Jambalaya (On The Bayou)
TTITLE3=Kim Richey - Just My Luck
TTITLE4=Sammy Kershaw - I Can't Reach Her Anymore
TTITLE5=Keith Stegall - 1969
TTITLE6=Harley Allen - Love Ain't Supposed To Hurt
TTITLE7=John and Audrey Wiggins - Falling Out Of Love
TTITLE8=Billy Ray Cyrus - Talk Some
EXTD=
EXTT0=
EXTT1=
EXTT2=
EXTT3=
EXTT4=
EXTT5=
EXTT6=
EXTT7=
EXTT8=
PLAYORDER=
